<svg width="25" height="25" viewBox="0 0 25 25" fill="none" xmlns="http://www.w3.org/2000/svg">
<path fill-rule="evenodd" clip-rule="evenodd" d="M11.0069 2.12634C10.8872 1.63142 10.6349 1.1785 10.2769 0.816336C9.92558 0.462869 9.48769 0.207717 9.00693 0.0763362C8.62727 0.0113623 8.24167 -0.0121092 7.85693 0.00633618H3.23693C2.86507 -0.0106755 2.49251 0.0161762 2.12693 0.0863362C1.63029 0.201598 1.17624 0.45462 0.816932 0.816336C0.45618 1.17793 0.20041 1.63071 0.0769325 2.12634C0.0155272 2.49295 -0.00793007 2.86491 0.00693245 3.23634V7.85634C-0.0141004 8.2415 0.0127718 8.62779 0.0869325 9.00634C0.199921 9.50675 0.453137 9.96462 0.816932 10.3263C1.18492 10.6661 1.63731 10.9009 2.12693 11.0063C2.49251 11.0765 2.86507 11.1033 3.23693 11.0863H7.85693C8.2421 11.1074 8.62839 11.0805 9.00693 11.0063C9.5058 10.8893 9.96262 10.6367 10.3269 10.2763C10.6594 9.91875 10.8936 9.48124 11.0069 9.00634C11.077 8.64413 11.1039 8.27488 11.0869 7.90634V3.23634C11.1039 2.86448 11.0771 2.49191 11.0069 2.12634ZM9.23693 7.75634C9.26214 8.01238 9.26214 8.27029 9.23693 8.52634C9.20982 8.70568 9.12972 8.87283 9.00693 9.00634C8.88652 9.12916 8.73409 9.21577 8.56693 9.25634C8.31049 9.27137 8.05338 9.27137 7.79693 9.25634H3.32693C3.07088 9.28154 2.81298 9.28154 2.55693 9.25634C2.39336 9.21406 2.24459 9.12757 2.12693 9.00634C2.00086 8.88845 1.91366 8.73498 1.87693 8.56634C1.85537 8.31012 1.85537 8.05255 1.87693 7.79634V3.32634C1.85578 3.07011 1.85578 2.81257 1.87693 2.55634C1.92116 2.39066 2.00725 2.23914 2.12693 2.11634C2.24579 1.99875 2.39445 1.91578 2.55693 1.87634C2.81318 1.85563 3.07068 1.85563 3.32693 1.87634H7.75693C8.01316 1.85519 8.2707 1.85519 8.52693 1.87634C8.70838 1.90966 8.87562 1.99676 9.00693 2.12634C9.12736 2.24462 9.21372 2.39316 9.25693 2.55634C9.27163 2.81279 9.27163 3.06988 9.25693 3.32634L9.23693 7.75634Z" fill="#B3B3B3"/>
<path fill-rule="evenodd" clip-rule="evenodd" d="M23.927 2.12627C23.812 1.63477 23.565 1.18403 23.2125 0.822732C22.86 0.461435 22.4155 0.203319 21.927 0.0762699C21.5472 0.0124446 21.1617 -0.0110194 20.777 0.00626985H16.157C15.7718 -0.0134561 15.3857 0.013405 15.007 0.0862698C14.5103 0.201531 14.0563 0.454554 13.697 0.81627C13.3536 1.18311 13.1153 1.6356 13.007 2.12627C12.9368 2.49184 12.91 2.86441 12.927 3.23627V7.85627C12.9059 8.24144 12.9328 8.62772 13.007 9.00627C13.1259 9.49049 13.3752 9.9329 13.7278 10.2855C14.0803 10.6381 14.5228 10.8873 15.007 11.0063C15.3726 11.076 15.7451 11.1028 16.117 11.0863H20.737C21.1221 11.106 21.5083 11.0791 21.887 11.0063C22.3819 10.8866 22.8348 10.6342 23.197 10.2763C23.5476 9.92434 23.7993 9.48633 23.927 9.00627C24.0011 8.62772 24.028 8.24144 24.007 7.85627V3.23627C24.024 2.86441 23.9971 2.49184 23.927 2.12627ZM22.157 7.75627C22.1717 8.01273 22.1717 8.26981 22.157 8.52627C22.1105 8.69064 22.0226 8.84036 21.9019 8.96114C21.7811 9.08193 21.6313 9.16977 21.467 9.21627C21.2139 9.23118 20.9601 9.23118 20.707 9.21627H16.247C15.9943 9.2418 15.7397 9.2418 15.487 9.21627C15.3098 9.19484 15.1429 9.12181 15.007 9.00627C14.8842 8.88586 14.7975 8.73342 14.757 8.56627C14.7419 8.30982 14.7419 8.05272 14.757 7.79627V3.32627C14.7358 3.07004 14.7358 2.8125 14.757 2.55627C14.8012 2.39059 14.8873 2.23908 15.007 2.11627C15.1283 1.99666 15.2807 1.91351 15.447 1.87627C15.6999 1.85484 15.9541 1.85484 16.207 1.87627H20.647C20.9032 1.85556 21.1607 1.85556 21.417 1.87627C21.5783 1.92333 21.7252 2.01031 21.8441 2.12916C21.9629 2.24802 22.0499 2.39491 22.097 2.55627C22.1181 2.8125 22.1181 3.07004 22.097 3.32627L22.157 7.75627Z" fill="#CDCCCC"/>
<path fill-rule="evenodd" clip-rule="evenodd" d="M11.0069 15.0063C10.8879 14.5221 10.6387 14.0797 10.2861 13.7271C9.93351 13.3746 9.49111 13.1253 9.00688 13.0063C8.64467 12.9362 8.27542 12.9094 7.90688 12.9263H3.23688C2.86502 12.9093 2.49246 12.9362 2.12688 13.0063C1.63196 13.126 1.17905 13.3784 0.81688 13.7363C0.461578 14.0846 0.209017 14.524 0.0868802 15.0063C0.0140154 15.3851 -0.0128458 15.7712 0.0068802 16.1563V20.7763C-0.00763014 21.1478 0.0158249 21.5197 0.0768802 21.8863C0.203929 22.3748 0.462045 22.8194 0.823342 23.1718C1.18464 23.5243 1.63538 23.7714 2.12688 23.8863C2.49086 23.9699 2.86345 24.0102 3.23688 24.0063H7.85688C8.24205 24.0274 8.62833 24.0005 9.00688 23.9263C9.50482 23.8069 9.96103 23.5546 10.3269 23.1963C10.6666 22.8283 10.9015 22.376 11.0069 21.8863C11.0766 21.5207 11.1034 21.1482 11.0869 20.7763V16.1563C11.1066 15.7712 11.0797 15.3851 11.0069 15.0063ZM9.23688 20.6863C9.25179 20.9395 9.25179 21.1932 9.23688 21.4463C9.19038 21.6107 9.10254 21.7604 8.98176 21.8812C8.86097 22.002 8.71125 22.0898 8.54688 22.1363C8.29042 22.151 8.03334 22.151 7.77688 22.1363H3.32688C3.07065 22.1575 2.81311 22.1575 2.55688 22.1363C2.39552 22.0893 2.24863 22.0023 2.12977 21.8834C2.01092 21.7646 1.92394 21.6177 1.87688 21.4563C1.85617 21.2001 1.85617 20.9426 1.87688 20.6863V16.2463C1.85501 15.9935 1.85501 15.7392 1.87688 15.4863C1.90569 15.3034 1.99348 15.1348 2.12688 15.0063C2.24517 14.8859 2.3937 14.7996 2.55688 14.7563C2.81311 14.7352 3.07065 14.7352 3.32688 14.7563H7.75688C8.01333 14.7413 8.27043 14.7413 8.52688 14.7563C8.70833 14.7897 8.87556 14.8768 9.00688 15.0063C9.12649 15.1276 9.20964 15.2801 9.24688 15.4463C9.27241 15.699 9.27241 15.9536 9.24688 16.2063L9.23688 20.6863Z" fill="#B3B3B3"/>
<path fill-rule="evenodd" clip-rule="evenodd" d="M23.9269 15.0062C23.807 14.5225 23.5574 14.0806 23.2049 13.7282C22.8525 13.3758 22.4107 13.1261 21.9269 13.0062C21.5613 12.9365 21.1888 12.9096 20.8169 12.9262H16.1569C15.7718 12.9065 15.3856 12.9333 15.0069 13.0062C14.5232 13.1261 14.0813 13.3758 13.7289 13.7282C13.3765 14.0806 13.1269 14.5225 13.0069 15.0062C12.9372 15.3718 12.9104 15.7443 12.9269 16.1162V20.7362C12.9072 21.1213 12.9341 21.5075 13.0069 21.8862C13.1269 22.3699 13.3765 22.8118 13.7289 23.1642C14.0813 23.5166 14.5232 23.7662 15.0069 23.8862C15.3726 23.9559 15.7451 23.9827 16.1169 23.9662H20.7369C21.1088 23.9827 21.4813 23.9559 21.8469 23.8862C22.3436 23.7709 22.7976 23.5179 23.1569 23.1562C23.5148 22.794 23.7672 22.3411 23.8869 21.8462C23.9674 21.4952 24.0077 21.1363 24.0069 20.7762V16.1562C24.0266 15.771 23.9998 15.3849 23.9269 15.0062ZM22.1569 20.6462C22.1713 20.9027 22.1713 21.1597 22.1569 21.4162C22.1137 21.5794 22.0274 21.7279 21.9069 21.8462C21.7865 21.969 21.6341 22.0556 21.4669 22.0962C21.214 22.1176 20.9598 22.1176 20.7069 22.0962H16.2469C15.9938 22.1111 15.74 22.1111 15.4869 22.0962C15.3226 22.0497 15.1728 21.9619 15.052 21.8411C14.9313 21.7203 14.8434 21.5706 14.7969 21.4062C14.7817 21.1531 14.7817 20.8993 14.7969 20.6462V16.2462C14.7755 15.9933 14.7755 15.7391 14.7969 15.4862C14.8434 15.3218 14.9313 15.1721 15.052 15.0513C15.1728 14.9305 15.3226 14.8427 15.4869 14.7962C15.74 14.7813 15.9938 14.7813 16.2469 14.7962H20.6869C20.9432 14.7755 21.2007 14.7755 21.4569 14.7962C21.6201 14.8394 21.7686 14.9258 21.8869 15.0462C22.0097 15.1666 22.0964 15.319 22.1369 15.4862C22.1584 15.7391 22.1584 15.9933 22.1369 16.2462L22.1569 20.6462Z" fill="#B3B3B3"/>
</svg>
